<svg xmlns="http://www.w3.org/2000/svg" width="400" height="277" viewBox="0 0 400 277"><path fill="#fdfeff" fill-rule="evenodd" d="M27.017 20.851c-1.899 1.019-4.367 3.077-5.485 4.574-2.009 2.691-2.035 3.925-2.297 109.898-.187 75.522.056 107.955.822 109.81 1.466 3.546 5.727 7.356 9.717 8.687 2.326.776 51.031 1.033 168 .887 162.738-.205 164.767-.231 168.121-2.207 1.868-1.1 4.343-3.27 5.5-4.823l2.105-2.824V28.5l-2.23-3.127C366.37 18.504 379.992 19 196.333 19c-159.518 0-165.996.071-169.316 1.851"/><path fill="#42a5fe" fill-rule="evenodd" d="M27.017 20.851c-1.899 1.019-4.367 3.077-5.485 4.574-2.009 2.691-2.035 3.925-2.297 109.898-.187 75.522.056 107.955.822 109.81 1.466 3.546 5.727 7.356 9.717 8.687 2.326.776 51.031 1.033 168 .887 162.738-.205 164.767-.231 168.121-2.207 1.868-1.1 4.343-3.27 5.5-4.823l2.105-2.824V28.5l-2.23-3.127C366.37 18.504 379.992 19 196.333 19c-159.518 0-165.996.071-169.316 1.851M281.323 67.07c-12.638 6.083-19.349 17.212-18.954 31.43.265 9.5 2.51 15.244 8.501 21.744 6.223 6.75 13.878 10.114 23.63 10.383 10.049.277 16.44-1.969 23.398-8.225 7.272-6.539 10.536-13.782 10.77-23.902.233-10.052-2.033-16.465-8.266-23.398-6.66-7.407-13.746-10.544-24.402-10.801-7.608-.183-9.148.107-14.677 2.769"/><path fill="#3e85d6" fill-rule="evenodd" d="M143.786 101.213a48411 48411 0 0 0-28.819 46.287c-10.603 17.05-25.548 41.069-33.211 53.376a86363 86363 0 0 0-23.804 38.25L48.081 255H348.23l-1.498-2.287c-.825-1.258-9.67-13.295-19.657-26.75-29.181-39.312-68.48-92.228-69.691-93.835-.907-1.205-4.71 3.358-20.372 24.445-10.59 14.26-19.816 26.526-20.5 27.258-1.013 1.083-2.55-.789-8.259-10.058-15.644-25.401-53.602-86.325-54.242-87.06-.377-.433-4.978 6.092-10.225 14.5"/><path fill="#3b61a9" fill-rule="evenodd" d="M150.75 90.635c-3.47 5.541-50.025 80.383-77.05 123.865-12.648 20.35-23.674 37.787-24.503 38.75-1.434 1.666 5.741 1.75 148.767 1.75h150.273l-2.454-3.25c-1.35-1.788-21.911-29.462-45.69-61.5s-43.54-58.239-43.914-58.225c-.373.014-9.657 12.148-20.631 26.965s-20.038 26.843-20.143 26.725c-.104-.118-13.778-22.04-30.385-48.715-16.608-26.675-30.568-48.889-31.023-49.365s-1.916.874-3.247 3"/><path fill="#3b579f" fill-rule="evenodd" d="M101.996 169.653c-28.253 45.417-51.992 83.2-52.754 83.962-1.18 1.18 20.818 1.385 148.617 1.385H347.86l-19.198-25.75a36000 36000 0 0 1-45.649-61.424c-14.548-19.62-26.733-35.499-27.078-35.286s-9.284 12.101-19.865 26.417c-10.58 14.315-19.608 26.258-20.062 26.538s-2.731-2.528-5.06-6.242a1862 1862 0 0 0-7.435-11.753c-1.761-2.75-13.24-21.2-25.509-41s-22.833-36.771-23.474-37.712c-.991-1.457-8.846 10.635-52.534 80.865"/><path fill="#393e81" fill-rule="evenodd" d="M101.932 169.698c-28.287 45.442-51.582 83-51.765 83.462-.184.462 66.526.84 148.244.84h148.577l-8.336-11.25c-53.376-72.032-81.313-109.402-82.073-109.785-.506-.256-9.412 11.01-19.79 25.035-10.379 14.025-19.465 26.097-20.192 26.826-1.096 1.101-2.05.165-5.602-5.5a1914 1914 0 0 0-7.482-11.826c-1.761-2.75-13.24-21.2-25.509-41s-22.833-36.771-23.474-37.712c-.991-1.457-8.854 10.639-52.598 80.91"/></svg>