<svg xmlns="http://www.w3.org/2000/svg" width="400" height="277" viewBox="0 0 400 277"><path fill="#fdfeff" fill-rule="evenodd" d="M281.323 67.07c-12.638 6.083-19.349 17.212-18.954 31.43.265 9.5 2.51 15.244 8.501 21.744 6.223 6.75 13.878 10.114 23.63 10.383 10.049.277 16.44-1.969 23.398-8.225 7.272-6.539 10.536-13.782 10.77-23.902.233-10.052-2.033-16.465-8.266-23.398-6.66-7.407-13.746-10.544-24.402-10.801-7.608-.183-9.148.107-14.677 2.769"/><path fill="#42a5fe" fill-rule="evenodd" d="M26.761 21.062c-2.285 1.207-4.521 3.507-5.75 5.916-1.977 3.876-2.011 5.721-2.009 109.732.001 118.029-.474 110.096 6.896 115.02 2.954 1.973 4.675 2.27 13.168 2.27h9.771l2.282-3.75c1.255-2.062 11.797-19.05 23.427-37.75l40.423-65c10.602-17.05 23.57-37.879 28.817-46.287s9.848-14.933 10.225-14.5c.64.735 38.598 61.659 54.242 87.06 5.709 9.269 7.246 11.141 8.259 10.058.684-.732 9.882-12.961 20.439-27.175s19.474-25.565 19.815-25.223c.817.817 46.976 62.999 71.456 96.26l19.278 26.193 8 .053c8.882.059 12.908-1.581 16.196-6.597 1.706-2.604 1.819-8.558 2.072-109.63l.267-106.877-2.201-3.917c-1.41-2.508-3.689-4.638-6.334-5.918-4.082-1.976-6.127-1.999-169.566-1.956-162.735.044-165.495.077-169.173 2.018M281 67.107c-5.317 2.773-15.155 12.07-15.83 14.96-.182.778-.632 1.643-1 1.924-.369.28-.794 1.614-.945 2.965s-.826 2.807-1.5 3.235-.775.785-.225.794c.565.008 1.008 2.954 1.018 6.765.024 8.507.642 12.39 2.241 14.081.693.731 1.033 1.697.756 2.145s.169 1.072.991 1.388 1.494.992 1.494 1.505c0 1.875 6.993 7.852 11.928 10.195 2.79 1.325 5.072 2.738 5.072 3.141s.675.473 1.5.157c.877-.337 1.506-.012 1.515.781.01.82.306.961.75.357.404-.55 3.885-1.044 7.735-1.097 7.584-.105 11.713-.586 12.5-1.456.275-.304 2.174-1.57 4.221-2.813 4.799-2.916 11.391-10.42 12.956-14.748.674-1.862 1.542-3.386 1.93-3.386s.47-.9.183-2c-.288-1.1-.063-2 .5-2s.861-.787.664-1.75-.546-4.477-.776-7.811-1.354-8.18-2.5-10.77c-1.146-2.591-1.993-4.851-1.881-5.022s-2.444-2.628-5.679-5.459c-7.657-6.7-13.793-8.98-24.118-8.963-6.847.012-8.793.427-13.5 2.882"/><path fill="#3e85d6" fill-rule="evenodd" d="M152.603 86.833c-.283.459.12.834.897.834s1.18-.375.897-.834S153.71 86 153.5 86s-.614.375-.897.833m74.269 82.917c-1.243 1.586-1.208 1.621.378.378 1.666-1.307 2.195-2.128 1.372-2.128-.207 0-.995.787-1.75 1.75M308 201.378c0 .207.788.995 1.75 1.75 1.586 1.243 1.621 1.208.378-.378-1.307-1.666-2.128-2.195-2.128-1.372"/><path fill="#3b61a9" fill-rule="evenodd" d="M201 164c.589 1.1 1.295 2 1.57 2s.019-.9-.57-2-1.295-2-1.57-2-.019.9.57 2"/><path fill="#3b579f" fill-rule="evenodd" d="M122.75 254.75c41.387.144 109.112.144 150.5 0 41.387-.145 7.525-.263-75.25-.263s-116.638.118-75.25.263"/><path fill="#393e81" fill-rule="evenodd" d="M101.932 169.698c-28.287 45.442-51.582 83-51.765 83.462-.184.462 66.526.84 148.244.84h148.577l-8.336-11.25c-53.376-72.032-81.313-109.402-82.073-109.785-.506-.256-9.412 11.01-19.79 25.035-10.379 14.025-19.465 26.097-20.192 26.826-1.096 1.101-2.05.165-5.602-5.5a1914 1914 0 0 0-7.482-11.826c-1.761-2.75-13.24-21.2-25.509-41s-22.833-36.771-23.474-37.712c-.991-1.457-8.854 10.639-52.598 80.91"/></svg>