<svg xmlns="http://www.w3.org/2000/svg" width="400" height="277" viewBox="0 0 400 277"><path fill="#fdfeff" fill-rule="evenodd" d="M283.302 66.043c-7.075 2.801-14.58 9.786-18.002 16.754-2.437 4.964-2.8 6.87-2.8 14.703 0 7.755.374 9.761 2.701 14.5 5.45 11.095 17.34 19 28.579 19 14.925 0 25.535-6.301 32.461-19.278 3.299-6.182 3.242-20.988-.11-28.436-2.805-6.233-10.341-13.599-16.914-16.533-6.917-3.088-19.068-3.421-25.915-.71"/><path fill="#42a5fe" fill-rule="evenodd" d="M27.017 20.851c-1.899 1.019-4.367 3.077-5.485 4.574-2.009 2.691-2.035 3.925-2.297 109.898-.187 75.522.056 107.955.822 109.81 1.447 3.5 5.739 7.376 9.443 8.527 4.13 1.283 21 1.123 21-.199 0-1.258 101.505-164.683 102.87-165.622.97-.668 4.771 5.229 41.522 64.411 11.185 18.012 20.695 32.75 21.133 32.75s9.417-11.663 19.953-25.919 19.698-26.126 20.359-26.38c.689-.264 12.306 14.506 27.183 34.561a94386 94386 0 0 0 43.899 59.13c9.855 13.259 18.406 25.03 19.001 26.156.96 1.816 1.955 2.031 8.744 1.893 8.479-.171 12.596-1.887 16.231-6.764l2.105-2.824V28.5l-2.23-3.127C366.37 18.504 379.992 19 196.333 19c-159.518 0-165.996.071-169.316 1.851m256.285 45.192c-11.529 4.565-20.058 16.049-21.044 28.336-1.21 15.068 5.245 26.336 19.214 33.541 4.824 2.487 7.192 3.08 12.308 3.08 14.925 0 25.535-6.301 32.461-19.278 3.299-6.182 3.242-20.988-.11-28.436-2.805-6.233-10.341-13.599-16.914-16.533-6.917-3.088-19.068-3.421-25.915-.71"/><path fill="#393e81" fill-rule="evenodd" d="M101.535 170.211c-28.03 45.159-51.053 82.711-51.161 83.448C50.21 254.775 75.07 255 198.588 255 304.373 255 347 254.689 347 253.918c0-.595-8.564-12.633-19.031-26.75-60.076-81.025-69.646-93.675-71.077-93.95-1.056-.204-7.911 8.271-20.822 25.739C225.484 173.281 216.45 185 215.995 185s-3.961-5.088-7.791-11.307c-30.238-49.097-53.53-85.685-54.521-85.642-.651.028-24.117 37-52.148 82.16"/></svg>