<svg xmlns="http://www.w3.org/2000/svg" width="400" height="277" viewBox="0 0 400 277"><path fill="#fdfeff" fill-rule="evenodd" d="M283.302 66.043c-7.075 2.801-14.58 9.786-18.002 16.754-2.437 4.964-2.8 6.87-2.8 14.703 0 7.755.374 9.761 2.701 14.5 5.45 11.095 17.34 19 28.579 19 14.925 0 25.535-6.301 32.461-19.278 3.299-6.182 3.242-20.988-.11-28.436-2.805-6.233-10.341-13.599-16.914-16.533-6.917-3.088-19.068-3.421-25.915-.71"/><path fill="#42a5fe" fill-rule="evenodd" d="M26.761 21.062c-2.294 1.211-4.521 3.508-5.763 5.943-2 3.92-2.022 5.247-1.761 110.908.263 106.738.267 106.946 2.355 109.764 1.151 1.553 3.601 3.85 5.447 5.106 3.03 2.062 4.324 2.255 13.408 2 6.105-.172 10.053-.691 10.053-1.322 0-1.257 101.505-164.683 102.87-165.622.97-.668 4.771 5.229 41.522 64.411 11.185 18.012 20.695 32.75 21.133 32.75s9.417-11.663 19.953-25.919 19.698-26.126 20.359-26.38c.689-.264 12.306 14.506 27.183 34.559 14.289 19.261 34.192 46.095 44.23 59.63s18.921 25.397 19.74 26.36c1.17 1.373 3.075 1.75 8.852 1.75 8.074 0 11.948-1.766 16.066-7.323 2.088-2.818 2.093-3.032 2.355-109.326.258-104.094.219-106.603-1.706-110.956-1.539-3.478-2.912-4.881-6.264-6.403-4.201-1.906-7.867-1.948-170.293-1.926-163.321.022-166.06.054-169.739 1.996m256.541 44.981c-11.529 4.565-20.058 16.049-21.044 28.336-1.21 15.068 5.245 26.336 19.214 33.541 4.824 2.487 7.192 3.08 12.308 3.08 14.925 0 25.535-6.301 32.461-19.278 3.299-6.182 3.242-20.988-.11-28.436-2.805-6.233-10.341-13.599-16.914-16.533-6.917-3.088-19.068-3.421-25.915-.71"/><path fill="#393e81" fill-rule="evenodd" d="M101.411 170.302c-36.283 58.376-50.811 82.56-50.128 83.448 1.297 1.686 295.717 1.853 295.717.168 0-.595-8.564-12.633-19.031-26.75-60.076-81.025-69.646-93.675-71.077-93.95-1.056-.204-7.911 8.271-20.822 25.739C225.484 173.281 216.45 185 215.995 185s-3.961-5.088-7.791-11.307c-30.243-49.105-53.53-85.684-54.521-85.641-.651.029-24.173 37.042-52.272 82.25"/><path fill-rule="evenodd" d="M0 138.502v138.503l200.25-.253 200.25-.252.254-138.25L401.007 0H0zm.486.498c0 76.175.119 107.337.264 69.25s.145-100.413 0-138.5S.486 62.825.486 139M26.761 21.062c-2.294 1.211-4.521 3.508-5.763 5.943-2 3.92-2.022 5.247-1.761 110.908.263 106.738.267 106.946 2.355 109.764 1.151 1.553 3.574 3.832 5.385 5.065l3.294 2.241 166.73-.001h166.731l3.292-2.241c1.811-1.233 4.233-3.511 5.384-5.064 2.088-2.818 2.093-3.032 2.355-109.326.258-104.094.219-106.603-1.706-110.956-1.539-3.478-2.912-4.881-6.264-6.403-4.201-1.906-7.867-1.948-170.293-1.926-163.321.022-166.06.054-169.739 1.996"/></svg>