<svg xmlns="http://www.w3.org/2000/svg" width="400" height="277" viewBox="0 0 400 277"><path fill="#fdfeff" fill-rule="evenodd" d="M0 138.502v138.503l200.25-.253 200.25-.252.254-138.25L401.007 0H0zm.486.498c0 76.175.119 107.337.264 69.25s.145-100.413 0-138.5S.486 62.825.486 139"/><path fill="#42a5fe" fill-rule="evenodd" d="M0 138.502v138.503l200.25-.253 200.25-.252.254-138.25L401.007 0H0zm.486.498c0 76.175.119 107.337.264 69.25s.145-100.413 0-138.5S.486 62.825.486 139m280.837-71.93c-12.638 6.083-19.349 17.212-18.954 31.43.265 9.5 2.51 15.244 8.501 21.744 6.223 6.75 13.878 10.114 23.63 10.383 10.049.277 16.44-1.969 23.398-8.225 7.272-6.539 10.536-13.782 10.77-23.902.233-10.052-2.033-16.465-8.266-23.398-6.66-7.407-13.746-10.544-24.402-10.801-7.608-.183-9.148.107-14.677 2.769"/><path fill="#41a4fe" fill-rule="evenodd" d="M0 138.502v138.503l200.25-.253 200.25-.252.254-138.25L401.007 0H0zm.486.498c0 76.175.119 107.337.264 69.25s.145-100.413 0-138.5S.486 62.825.486 139M26.761 21.062c-2.285 1.207-4.521 3.507-5.75 5.916-1.977 3.876-2.011 5.721-2.009 109.732.001 118.029-.474 110.096 6.896 115.02 2.954 1.973 4.675 2.27 13.168 2.27h9.771l2.282-3.75c1.255-2.062 11.797-19.05 23.427-37.75l40.423-65c10.602-17.05 23.57-37.879 28.817-46.287s9.848-14.933 10.225-14.5c.64.735 38.598 61.659 54.242 87.06 5.709 9.269 7.246 11.141 8.259 10.058.684-.732 9.882-12.961 20.439-27.175s19.474-25.565 19.815-25.223c.817.817 46.976 62.999 71.456 96.26l19.278 26.193 8 .053c8.882.059 12.908-1.581 16.196-6.597 1.706-2.604 1.819-8.558 2.072-109.63l.267-106.877-2.201-3.917c-1.41-2.508-3.689-4.638-6.334-5.918-4.082-1.976-6.127-1.999-169.566-1.956-162.735.044-165.495.077-169.173 2.018"/><path fill="#3e85d6" fill-rule="evenodd" d="M0 138.502v138.503l200.25-.253 200.25-.252.254-138.25L401.007 0H0zm.486.498c0 76.175.119 107.337.264 69.25s.145-100.413 0-138.5S.486 62.825.486 139M29.75 18.689c-.962.252-1.75.901-1.75 1.443s-.397.741-.882.441c-1.027-.635-6.487 3.392-5.686 4.192.295.296-.244 1.108-1.198 1.805-1.624 1.188-1.751 8.093-2.002 108.849-.174 70.23.075 107.581.719 107.581.542 0 .746.626.452 1.391-.603 1.573 5.357 8.875 6.612 8.1.448-.277 1.003.062 1.233.753.299.898 3.357 1.262 10.722 1.278l10.304.021 2.272-3.521c1.25-1.937 11.919-19.047 23.709-38.022 32.172-51.78 58.857-94.682 69.531-111.787 5.247-8.408 9.848-14.933 10.225-14.5.64.735 38.598 61.659 54.242 87.06 5.709 9.269 7.246 11.141 8.259 10.058.684-.732 9.91-12.998 20.5-27.258 15.662-21.087 19.465-25.65 20.372-24.445 2.289 3.039 52.812 71.086 71.439 96.218l19.324 26.07 7.676.17c4.771.106 8.673-.338 10.308-1.172 3.811-1.944 8.105-7.403 7.536-9.58-.264-1.01-.066-1.581.44-1.268 1.31.81.703-213.418-.607-214.353-.55-.392-1.129-1.388-1.287-2.213-.392-2.046-5.137-6.165-6.285-5.455-.511.315-.928.048-.928-.593s-.675-.907-1.5-.59c-.825.316-1.5.139-1.5-.393 0-.965-328.571-1.241-332.25-.28"/><path fill="#3b61a9" fill-rule="evenodd" d="M0 138.502v138.503l200.25-.253 200.25-.252.254-138.25L401.007 0H0zm.486.498c0 76.175.119 107.337.264 69.25s.145-100.413 0-138.5S.486 62.825.486 139M29.75 18.689c-.962.252-1.75.901-1.75 1.443s-.397.741-.882.441c-1.027-.635-6.487 3.392-5.686 4.192.295.296-.244 1.108-1.198 1.805-1.624 1.188-1.751 8.093-2.002 108.849-.174 70.23.075 107.581.719 107.581.542 0 .746.626.452 1.391-.535 1.396 5.438 9.102 6.349 8.19.267-.267 1.066.094 1.775.803 1.9 1.9 19.999 1.552 21.838-.42 1.272-1.364 13.218-20.487 77.128-123.464 13.653-22 25.367-40.598 26.031-41.33.969-1.067 6.595 7.319 28.512 42.5 15.018 24.107 28.93 46.411 30.917 49.566l3.611 5.737 19.968-26.962c10.982-14.828 20.274-26.972 20.649-26.986s21.154 27.547 46.177 61.246l45.497 61.271 8.322-.041c4.578-.022 9.287-.584 10.465-1.248 3.498-1.972 7.551-7.406 7.025-9.419-.264-1.01-.066-1.581.44-1.268 1.31.81.703-213.418-.607-214.353-.55-.392-1.129-1.388-1.287-2.213-.392-2.046-5.137-6.165-6.285-5.455-.511.315-.928.048-.928-.593s-.675-.907-1.5-.59c-.825.316-1.5.139-1.5-.393 0-.965-328.571-1.241-332.25-.28"/><path fill="#3b579f" fill-rule="evenodd" d="M0 138.502v138.503l200.25-.253 200.25-.252.254-138.25L401.007 0H0zm.486.498c0 76.175.119 107.337.264 69.25s.145-100.413 0-138.5S.486 62.825.486 139M29.75 18.689c-.962.252-1.75.901-1.75 1.443s-.397.741-.882.441c-1.027-.635-6.487 3.392-5.686 4.192.295.296-.244 1.108-1.198 1.805-1.624 1.188-1.751 8.093-2.002 108.849-.174 70.23.075 107.581.719 107.581.542 0 .746.626.452 1.391-.535 1.396 5.438 9.102 6.349 8.19.267-.267 1.071.1 1.787.815.919.919 4.252 1.253 11.361 1.139 5.533-.089 10.255-.358 10.493-.598s23.653-37.755 52.032-83.366c28.38-45.611 51.717-83.046 51.859-83.188s10.781 16.701 23.642 37.429 24.824 39.938 26.585 42.688 5.108 8.039 7.437 11.753 4.606 6.523 5.06 6.242 9.482-12.223 20.062-26.538c10.581-14.316 19.52-26.204 19.866-26.417.345-.214 18.163 23.244 39.596 52.128s41.893 56.399 45.468 61.144l6.5 8.627 8 .158c5.018.1 8.981-.341 10.631-1.183 3.811-1.944 8.105-7.403 7.536-9.58-.264-1.01-.066-1.581.44-1.268 1.31.81.703-213.418-.607-214.353-.55-.392-1.129-1.388-1.287-2.213-.392-2.046-5.137-6.165-6.285-5.455-.511.315-.928.048-.928-.593s-.675-.907-1.5-.59c-.825.316-1.5.139-1.5-.393 0-.965-328.571-1.241-332.25-.28"/><path fill="#393e81" fill-rule="evenodd" d="M0 138.502v138.503l200.25-.253 200.25-.252.254-138.25L401.007 0H0zm.486.498c0 76.175.119 107.337.264 69.25s.145-100.413 0-138.5S.486 62.825.486 139M27.401 19.905c-2.254 1.024-5.179 3.377-6.5 5.228L18.5 28.5v216.353l2.092 2.824c1.151 1.552 3.58 3.835 5.398 5.073l3.306 2.25h334.408l3.306-2.25c1.818-1.238 4.247-3.52 5.398-5.073 2.088-2.818 2.093-3.029 2.355-109.511l.263-106.688-2.263-4.489c-1.657-3.288-3.457-5.091-6.725-6.739L361.576 18l-165.038.022c-158.785.021-165.193.092-169.137 1.883m74.531 149.793c-28.287 45.442-51.582 83-51.765 83.462-.184.462 66.526.84 148.244.84h148.577l-8.336-11.25c-53.376-72.032-81.313-109.402-82.073-109.785-.506-.256-9.412 11.01-19.79 25.035-10.379 14.025-19.465 26.097-20.192 26.826-1.096 1.101-2.05.165-5.602-5.5a1914 1914 0 0 0-7.482-11.826c-1.761-2.75-13.24-21.2-25.509-41s-22.833-36.771-23.474-37.712c-.991-1.457-8.854 10.639-52.598 80.91"/><path fill-rule="evenodd" d="M0 138.502v138.503l200.25-.253 200.25-.252.254-138.25L401.007 0H0zm.486.498c0 76.175.119 107.337.264 69.25s.145-100.413 0-138.5S.486 62.825.486 139M27.401 19.905c-2.254 1.024-5.179 3.377-6.5 5.228L18.5 28.5v216.353l2.092 2.824c1.151 1.552 3.58 3.835 5.398 5.073l3.306 2.25h334.408l3.306-2.25c1.818-1.238 4.247-3.52 5.398-5.073 2.088-2.818 2.093-3.029 2.355-109.511l.263-106.688-2.263-4.489c-1.657-3.288-3.457-5.091-6.725-6.739L361.576 18l-165.038.022c-158.785.021-165.193.092-169.137 1.883"/></svg>