<svg xmlns="http://www.w3.org/2000/svg" width="400" height="277" viewBox="0 0 400 277"><path fill="#fdfeff" fill-rule="evenodd" d="M0 138.502v138.503l200.25-.253 200.25-.252.254-138.25L401.007 0H0zm.486.498c0 76.175.119 107.337.264 69.25s.145-100.413 0-138.5S.486 62.825.486 139"/><path fill="#42a5fe" fill-rule="evenodd" d="M0 138.502v138.503l200.25-.253 200.25-.252.254-138.25L401.007 0H0zm.486.498c0 76.175.119 107.337.264 69.25s.145-100.413 0-138.5S.486 62.825.486 139m287.443-73.695c-9.986 2.828-18.176 9.67-22.318 18.644-3.013 6.527-2.984 20.635.055 27.227 3.188 6.914 9.429 13.104 16.941 16.802 6.283 3.093 7.051 3.232 15.798 2.849 10.666-.466 15.372-2.607 22.331-10.157 7.277-7.895 8.774-11.799 8.692-22.67-.057-7.63-.526-10.537-2.381-14.77-2.904-6.623-11.195-14.404-17.761-16.668-6.578-2.267-15.859-2.813-21.357-1.257"/><path fill="#41a4fe" fill-rule="evenodd" d="M0 138.502v138.503l200.25-.253 200.25-.252.254-138.25L401.007 0H0zm.486.498c0 76.175.119 107.337.264 69.25s.145-100.413 0-138.5S.486 62.825.486 139M27.102 21.894c-1.869.996-4.212 3.339-5.208 5.208-1.713 3.216-1.812 9.064-1.851 109.398-.045 118.275-.519 110.304 6.855 115.23 2.956 1.975 4.674 2.27 13.203 2.27 9.017 0 9.937-.181 11.444-2.25.901-1.237 10.728-16.875 21.837-34.75 34.68-55.799 61.489-98.897 71.41-114.796 7.621-12.213 9.788-15.035 10.753-14 .664.713 11.235 17.496 23.49 37.296s24.147 38.925 26.426 42.5 5.471 8.637 7.092 11.248c1.621 2.612 3.622 4.733 4.447 4.715s9.985-11.493 20.355-25.498S256.807 133 257.537 133s8.107 9.113 16.394 20.25C329.683 228.18 346 250.43 346 251.524c0 1.738 3.34 2.446 11.602 2.462 8.3.016 12.764-2.268 15.646-8.006 1.632-3.247 1.749-10.522 1.75-108.71.002-118.167.412-111.489-7.084-115.314-3.761-1.919-7.017-1.955-170.624-1.914-158.998.04-166.949.126-170.188 1.852"/><path fill="#3e85d6" fill-rule="evenodd" d="M0 138.502v138.503l200.25-.253 200.25-.252.254-138.25L401.007 0H0zm.486.498c0 76.175.119 107.337.264 69.25s.145-100.413 0-138.5S.486 62.825.486 139M28.401 20.905c-2.254 1.024-5.179 3.377-6.5 5.228L19.5 29.5l-.268 106.75c-.197 78.546.03 106.75.857 106.75.619 0 .877.646.574 1.436s.335 2.563 1.418 3.939c3.472 4.414 7.352 5.625 18.026 5.625 9.01 0 9.932-.181 11.438-2.25.901-1.237 10.728-16.875 21.837-34.75 34.68-55.799 61.489-98.897 71.41-114.796 7.621-12.213 9.788-15.035 10.753-14 .664.713 11.235 17.496 23.49 37.296s24.147 38.925 26.426 42.5 5.471 8.637 7.092 11.248c1.621 2.612 3.622 4.733 4.447 4.715s9.985-11.493 20.355-25.498S256.807 133 257.537 133s8.107 9.112 16.394 20.25C329.683 228.18 346 250.43 346 251.524c0 1.738 3.34 2.446 11.602 2.462 8.3.016 12.764-2.268 15.646-8.006 1.632-3.248 1.748-10.509 1.728-108.98-.019-102.333-.078-105.629-1.964-109.784-1.484-3.27-2.958-4.744-6.228-6.228-4.188-1.9-7.996-1.944-169.284-1.944-158.774 0-165.155.07-169.099 1.861"/><path fill="#3b61a9" fill-rule="evenodd" d="M0 138.502v138.503l200.25-.253 200.25-.252.254-138.25L401.007 0H0zm.486.498c0 76.175.119 107.337.264 69.25s.145-100.413 0-138.5S.486 62.825.486 139M28.401 20.905c-2.254 1.024-5.179 3.377-6.5 5.228L19.5 29.5l-.268 106.75c-.197 78.546.03 106.75.857 106.75.619 0 .877.646.574 1.436s.335 2.563 1.418 3.939c3.472 4.414 7.352 5.625 18.026 5.625 9.01 0 9.932-.181 11.438-2.25.901-1.237 10.728-16.875 21.837-34.75s29.575-47.575 41.033-66a50527 50527 0 0 0 29.959-48.224c5.019-8.098 9.625-14.736 10.235-14.75s11.361 16.511 23.89 36.724 23.807 38.325 25.062 40.25 4.694 7.369 7.641 12.098c3.982 6.388 5.64 8.296 6.453 7.426.601-.644 9.526-12.5 19.832-26.347S256.82 133 257.545 133s8.099 9.112 16.386 20.25C329.683 228.18 346 250.43 346 251.524c0 1.738 3.34 2.446 11.602 2.462 8.3.016 12.764-2.268 15.646-8.006 1.632-3.248 1.748-10.509 1.728-108.98-.019-102.333-.078-105.629-1.964-109.784-1.484-3.27-2.958-4.744-6.228-6.228-4.188-1.9-7.996-1.944-169.284-1.944-158.774 0-165.155.07-169.099 1.861"/><path fill="#3b579f" fill-rule="evenodd" d="M0 138.502v138.503l200.25-.253 200.25-.252.254-138.25L401.007 0H0zm.486.498c0 76.175.119 107.337.264 69.25s.145-100.413 0-138.5S.486 62.825.486 139M28.401 20.905c-2.254 1.024-5.179 3.377-6.5 5.228L19.5 29.5l-.268 106.75c-.197 78.546.03 106.75.857 106.75.619 0 .877.646.574 1.436s.335 2.563 1.418 3.939c3.472 4.414 7.352 5.625 18.026 5.625 9.01 0 9.932-.181 11.438-2.25.901-1.237 10.728-16.875 21.837-34.75s29.575-47.575 41.033-66a50527 50527 0 0 0 29.959-48.224c5.019-8.098 9.625-14.736 10.235-14.75s11.361 16.511 23.89 36.724 23.807 38.325 25.062 40.25 4.694 7.369 7.641 12.098c3.982 6.388 5.64 8.296 6.453 7.426.601-.644 9.526-12.5 19.832-26.347S256.82 133 257.545 133s8.099 9.112 16.386 20.25C329.683 228.18 346 250.43 346 251.524c0 1.738 3.34 2.446 11.602 2.462 8.3.016 12.764-2.268 15.646-8.006 1.632-3.248 1.748-10.509 1.728-108.98-.019-102.333-.078-105.629-1.964-109.784-1.484-3.27-2.958-4.744-6.228-6.228-4.188-1.9-7.996-1.944-169.284-1.944-158.774 0-165.155.07-169.099 1.861"/><path fill="#393e81" fill-rule="evenodd" d="M0 138.502v138.503l200.25-.253 200.25-.252.254-138.25L401.007 0H0zm.486.498c0 76.175.119 107.337.264 69.25s.145-100.413 0-138.5S.486 62.825.486 139M28.401 20.905c-2.254 1.024-5.179 3.377-6.5 5.228L19.5 29.5 19.242 136c-.288 118.932-.757 110.778 6.656 115.73 3.086 2.062 4.509 2.263 15.5 2.191 6.656-.043 11.563-.298 10.903-.566-1.346-.547-2.344 1.158 25.542-43.605 24.011-38.541 54.583-87.699 66.531-106.974 5.019-8.098 9.625-14.736 10.235-14.75s11.361 16.511 23.89 36.724 23.807 38.325 25.062 40.25 4.694 7.369 7.641 12.098c3.982 6.388 5.64 8.296 6.453 7.426.601-.644 9.526-12.5 19.832-26.347S256.82 133 257.545 133s8.099 9.112 16.386 20.25C332.122 231.458 346 250.501 346 252.141c0 1.68.903 1.859 9.352 1.859 8.058 0 9.822-.314 12.75-2.27 7.371-4.924 6.897 2.981 6.874-114.73-.019-102.333-.078-105.629-1.964-109.784-1.484-3.27-2.958-4.744-6.228-6.228-4.188-1.9-7.996-1.944-169.284-1.944-158.774 0-165.155.07-169.099 1.861"/><path fill-rule="evenodd" d="M0 138.502v138.503l200.25-.253 200.25-.252.254-138.25L401.007 0H0zm.486.498c0 76.175.119 107.337.264 69.25s.145-100.413 0-138.5S.486 62.825.486 139M28.401 20.905c-2.254 1.024-5.179 3.377-6.5 5.228L19.5 29.5 19.242 136c-.288 118.932-.757 110.778 6.656 115.73l3.398 2.27h335.408l3.398-2.27c7.371-4.924 6.897 2.981 6.874-114.73-.019-102.333-.078-105.629-1.964-109.784-1.484-3.27-2.958-4.744-6.228-6.228-4.188-1.9-7.996-1.944-169.284-1.944-158.774 0-165.155.07-169.099 1.861"/></svg>