<svg xmlns="http://www.w3.org/2000/svg" width="28" height="29" viewBox="0 0 28 29"><path fill-rule="evenodd" d="M0 14.5C0 26.722.236 29 1.5 29c.825 0 1.5-.845 1.5-1.878s.692-2.452 1.539-3.154c1.361-1.13 1.246-1.583-1-3.927-3.18-3.319-3.213-6.651-.12-12.095C5.807 3.742 10.048 1 14.164 1c3.425 0 7.781 2.952 10.341 7.009 3.19 5.052 3.148 7.7-.176 11.169-2.514 2.625-2.573 2.895-1 4.634.919 1.015 1.671 2.631 1.671 3.59 0 1.123.624 1.625 1.75 1.409 1.553-.298 1.781-1.938 2.027-14.573L29.055 0H0zm.397.5c0 7.975.156 11.238.346 7.25s.189-10.512 0-14.5C.553 3.762.397 7.025.397 15M8.866 3.511C5.545 5.315 2 11.231 2 14.968c0 1.917.945 3.65 2.88 5.278 2.728 2.295 2.781 2.485 1 3.597C4.846 24.489 4 25.848 4 26.864c0 1.539.707 1.811 4.25 1.634 2.338-.117 4.441-.277 4.674-.355.234-.079-.666-1.377-2-2.886-1.716-1.942-1.84-2.289-.424-1.19 2.043 1.586 5.99 1.82 7.282.431.395-.424.043-.548-.782-.274s-3.162-.335-5.194-1.355c-2.778-1.393-3.597-2.358-3.302-3.888.218-1.134-.035-1.771-.573-1.439-.53.328-.645 1.128-.255 1.777.495.826.247.808-.826-.06-.844-.683-1.854-.922-2.245-.531s-.419-.175-.064-1.258c.527-1.601.446-1.689-.431-.47-.898 1.247-1.082 1.121-1.095-.75-.019-2.831 1.796-2.935 2.822-.162.683 1.846.92 1.91 2.05.548.807-.972.994-2.388.507-3.838-1.314-3.914-1.258-4.669.451-6.004 1.513-1.183 1.526-1.122.155.706-1.385 1.846-1.368 1.896.218.654.945-.74 1.679-1.64 1.632-2-.462-3.496 3.133-4.249 8.078-1.691 3.655 1.89 5.971 7.203 2.572 5.899-.825-.317-2.288-.271-3.25.102-1.623.63-1.605.792.25 2.242 1.633 1.276 1.677 1.452.238.955-1.463-.504-1.657-.187-1.142 1.866.513 2.045.256 2.473-1.488 2.473C14.949 18 14 17.48 14 16.845c0-.655-.866-.371-2 .655-3.032 2.744-2.454 3.493 2.75 3.57 3.229.048 4.133.312 2.823.825-1.724.676-1.75.823-.25 1.399.978.375 1.677 1.734 1.677 3.258 0 2.568 2.357 3.12 2.625.615.27-2.524.607-2.565 1.375-.167.72 2.247.811 2.285.9.372.055-1.17-.661-2.745-1.592-3.5-1.441-1.168-1.566-1.164-.845.033.533.885.469 1.171-.174.774-.56-.347-.895-1.764-.743-3.15s-.133-2.774-.635-3.084c-1.502-.928-1.029-3.445.648-3.445.857 0 1.3-.419.984-.931s-.118-1.213.441-1.559c1.401-.866 1.295 4.097-.146 6.806-1.064 2-.939 1.974 1.483-.316 3.211-3.035 3.355-5.74.559-10.479-3.526-5.977-9.541-7.983-15.014-5.01m.671 8.53c.807.892 1.166 1.922.799 2.29-.368.368.418.662 1.747.654 1.705-.011 2.024-.265 1.083-.861-1.066-.676-1.003-.973.314-1.478 2.525-.969.753-2.696-2.511-2.447-2.606.199-2.75.385-1.432 1.842M6.553 25.915a1.116 1.116 0 0 0 .362 1.532c.521.322 1.21.159 1.532-.362a1.116 1.116 0 0 0-.362-1.532 1.116 1.116 0 0 0-1.532.362"/></svg>