<svg xmlns="http://www.w3.org/2000/svg" width="1080" height="1080" viewBox="0 0 1080 1080"><path fill-rule="evenodd" d="M336 126.131c-3.575.544-9.65 1.638-13.5 2.431s-12.175 2.367-18.5 3.497c-6.325 1.131-15.437 2.967-20.25 4.082l-8.75 2.026v7.108l5.75-.674c3.163-.371 7.325-1.091 9.25-1.6 7.498-1.983 25.086-4.997 28.698-4.917l3.802.085-4.5 2.067c-4.313 1.982-20.668 7.11-28 8.779-5.098 1.16-23.001 5.884-26.5 6.991-24.305 7.694-39.766 14.515-51.062 22.527-12.296 8.722-19.41 17.448-55.684 68.312-16.891 23.686-31.089 46.838-36.275 59.155-11.572 27.481-14.264 45.224-16.459 108.5-1.078 31.091-2.114 37.766-8.543 55.076-2.027 5.458-5.507 13.299-7.733 17.424-12.105 22.436-20.591 40.225-22.183 46.5-4.112 16.205-2.942 30.263 4.454 53.5 4.461 14.016 5.855 20.748 7.105 34.302 1.472 15.969.562 39.696-2.196 57.198-4.294 27.257-2.698 48.707 4.879 65.57 2.712 6.036 12.534 22.761 14.053 23.93.357.275 1.998 2.52 3.647 4.989 4.078 6.106 26.174 28.771 35.997 36.921 24.019 19.931 57.21 40.657 84.568 52.808 11.462 5.091 30.205 11.797 41.432 14.824 37.04 9.986 50.379 13.441 56 14.506 2.75.521 6.8 1.353 9 1.849 19.489 4.393 45.269 8.438 70.5 11.061 23.276 2.419 34.838 5.42 63.186 16.395 16.683 6.459 39.148 13.886 54.814 18.122 54.312 14.685 65.452 17.522 75.25 19.161 2.063.345 3.75.96 3.75 1.366s1.913 1.007 4.25 1.336c2.337.328 6.275 1.059 8.75 1.623 6.328 1.444 31.855 5.655 42 6.929 20.683 2.598 44.881 3.568 89.5 3.588 49.774.023 48.246.135 68-4.977 10.658-2.758 21.312-8.672 31-17.207 20.592-18.142 41.439-44.432 68.032-85.794 23.17-36.04 36.995-63.921 55.04-111 4.565-11.91 14.609-54.178 17.467-73.5 5.623-38.032 6.385-48.655 6.38-89-.005-44.856-.68-51.538-10.407-103-11.254-59.541-24.999-95.343-55.476-144.5-30.525-49.234-37.045-57.369-80.891-100.927-54.296-53.939-65.812-63.117-101.848-81.175-33.677-16.875-60.69-23.53-115.297-28.404-15.429-1.377-28.319-2.614-47-4.509-8.25-.837-26.025-1.986-39.5-2.552-33.956-1.427-187.754-2.057-196-.802m41.798 7.833c-.936.595-6.786 1.986-13 3.091-10.674 1.898-16.044 3.322-53.798 14.262-8.525 2.47-17.975 5.066-21 5.77s-5.928 1.646-6.45 2.096c-.523.449-2.066.817-3.429.817s-3.861.437-5.55.972-6.221 1.927-10.071 3.096c-22.072 6.7-40.244 14.97-51 23.209-7.82 5.991-16.713 15.993-25.539 28.723-3.241 4.675-10.932 15.475-17.092 24-51.552 71.346-57.231 87.833-59.41 172.443-1.043 40.538-4.053 52.825-20.712 84.557-16.803 32.005-19.187 38.138-20.276 52.164-.727 9.359.384 15.234 7.364 38.926 2.202 7.474 4.715 18.706 5.584 24.96 2.026 14.568 2.044 40.937.039 56.488-4.225 32.773-4.369 34.719-3.359 45.458 1.062 11.278 2.72 18.085 6.475 26.576 5.526 12.495 22.946 36 35.557 47.977 24.197 22.983 55.102 44.446 86.096 59.794 25.309 12.534 48.004 20.079 93.773 31.177 5.775 1.4 12.075 2.977 14 3.503s6.93 1.629 11.122 2.449c4.192.821 8.242 1.709 9 1.973 2.39.834 37.183 5.928 51.378 7.523 23.425 2.631 27.448 3.213 36 5.211 9.465 2.211 18.557 5.332 40 13.731 14.206 5.565 46.18 15.979 56.5 18.403 3.575.84 8.975 2.202 12 3.027 90.586 24.722 113.528 28.112 198.5 29.33 41.068.589 50.779.039 67.5-3.824 8.136-1.879 9.504-2.318 15.75-5.048 13.486-5.895 40.069-32.223 57.528-56.975 32.661-46.306 51.426-78.219 65.749-111.823 12.556-29.457 14.797-35.693 22.464-62.5 1.456-5.089 7.463-34.696 9.436-46.5 8.49-50.812 9.102-112.228 1.567-157.319-4.649-27.825-10.814-57.858-15.047-73.303-11.085-40.448-28.427-75.687-62.267-126.533-19.95-29.975-31.614-43.303-73.094-83.529-40.154-38.941-55.75-51.365-81.26-64.734-17.794-9.326-29.469-14.088-50.326-20.53-14.49-4.476-39.155-8.349-70-10.993-25.038-2.146-29.471-2.567-43.5-4.134-20.793-2.322-68.966-3.988-130-4.497-46.145-.385-66.003-.227-67.202.536M540.033 242.25c-.508 1.238-1.401 11.25-1.984 22.25-3.503 66.152-15.57 125.061-36.769 179.5-2.463 6.325-5.446 12.348-6.629 13.385-1.999 1.752-3.455 1.842-20.651 1.271-19.275-.639-33.91-2.405-47.5-5.732-44.701-10.943-80.761-36.204-107.669-75.424-6.363-9.275-15.052-24.271-19.266-33.25-3.058-6.516-4.584-7.423-8.124-4.825-1.877 1.377-1.743 1.813 4.059 13.194 12.194 23.92 25.175 42.122 41.891 58.739 36.408 36.191 79.041 53.344 137.039 55.137 7.739.24 14.407.451 14.82.47 3.905.181-12.766 33.547-31.246 62.535-21.129 33.143-41.969 58.551-72.328 88.178-26.013 25.387-55.44 48.905-84.676 67.672l-19 12.198c-4.675 3.002-9.4 5.867-10.5 6.367-8.18 3.715-29.063 16.198-29.333 17.534-.402 1.995 1.552 4.551 3.479 4.551 1.695 0 29.798-15.695 44.354-24.771 13.577-8.465 36.068-23.753 47.5-32.285 7.938-5.925 32.579-26.186 37.409-30.759 40.053-37.919 59.505-60.574 86.445-100.685 13.384-19.927 27.72-46.694 39.636-74 5.74-13.153 6.285-14.599 14.396-38.18 12.809-37.237 21.509-77.002 26.549-121.355 2.338-20.573 4.722-59.81 3.783-62.257-.949-2.473-4.589-2.126-5.685.542M739 325.899c-39.141 10.906-72.344 25.086-95.945 40.976-54.171 36.474-78.434 83.906-75.002 146.625.883 16.123 1.532 21.133 4.992 38.5 7.04 35.334 25.965 83.038 49.986 126 2.922 5.225 7.315 13.1 9.762 17.5s4.771 8.225 5.164 8.5c.394.275 2.465 3.65 4.605 7.5 8.671 15.607 42.897 65.374 65.13 94.704 3.175 4.187 5.205 4.672 7.756 1.854 1.698-1.877 1.507-2.27-5.715-11.75-21.934-28.789-53.136-74.975-69.455-102.808-11.237-19.166-15.228-26.565-24.272-45-23.073-47.027-35.223-84.036-39.491-120.288-5.62-47.732 4.828-87.661 31.454-120.212 16.481-20.148 44.44-40.769 71.031-52.388 4.675-2.043 9.278-4.14 10.23-4.659 6.471-3.534 45.279-16.638 59.142-19.97 4.329-1.041 8.084-2.106 8.345-2.366.26-.261.17-1.856-.201-3.545-.435-1.981-1.268-3.048-2.345-3.003-.919.038-7.746 1.761-15.171 3.83"/></svg>